# xmcd CD database file generated by freedbAccess_ocx
#
# Track frame offsets:
#       150
#       25404
#       42022
#       69131
#       91537
#       107303
#
# Disc length: 1661 seconds
#
# Revision: 0
# Processed by: cddbd v1.5.1PL0 Copyright (c) Steve Scherf et al.
# Submitted via: CDnGo 2.00
#
DISCID=34067b06
DTITLE=Goldentone - Demo CD number two
DYEAR=1999
DGENRE=Alt. Country
TTITLE0=Second Chance
TTITLE1=Break Away
TTITLE2=Rebekah
TTITLE3=Heartbeat
TTITLE4=Stand Your Ground
TTITLE5=Next To Thee
EXTD=
EXTT0=
EXTT1=
EXTT2=
EXTT3=
EXTT4=
EXTT5=
PLAYORDER=
